<svg xmlns="http://www.w3.org/2000/svg" version="1" width="195.515" height="258.369"><path d="M8.286 189.524l.44-156.59c30.817 26.82 77.857-.278 89.25-21.984 22.185 39.472 77.195 37.772 88.813 21.544l.438 161.795c-.22 35.556-68.328 18.58-89.46 53.13-21.44-37.596-88.137-16.182-89.482-57.896z" fill="#003a73" fill-rule="evenodd"/><path d="M16.12 185.54l.4-78.46 162.473-.043.402 82.693c.11 32.496-62.346 16.34-81.627 46.73-19.564-33.066-81.348-13.277-81.648-50.92zM76.786 98.173c2.09-10.25 5.026-19.368 8.743-27.448l-3.458-1.83 1.22-2.237c8.46 1.997 7.826 3.16 10.37 4.676l-1.627 2.847-4.066-1.83c-5.38 8.46-7.07 17.445-8.744 26.433 22.167-1.154 52.753-18.597 38.224-57.134-3.29 1.486-6.4 3.328-9.15 5.896l2.847 2.643-2.033 1.83c-2.056-2.215-4.346-4.194-8.54-4.27l2.644-1.83 3.456.406c1.673-2.033 4.563-4.067 8.946-6.1C83.082 40 67.982 63.09 76.786 98.173z" fill="#fff" fill-rule="evenodd"/><path d="M35.227 72.234L27.847 67l-7.332 5.3 2.698-8.637-7.306-5.336 9.047-.102 2.817-8.598 2.894 8.572 9.048.022-7.26 5.4 2.775 8.612zM66.37 72.234L58.99 67l-7.333 5.3 2.7-8.637-7.308-5.336 9.046-.102 2.817-8.598 2.893 8.572 9.048.022-7.26 5.4 2.775 8.612zM35.227 99.743l-7.38-5.235-7.332 5.3 2.698-8.636-7.306-5.336 9.047-.102 2.817-8.598 2.894 8.572 9.048.023-7.26 5.4 2.775 8.613zM66.37 99.743l-7.38-5.235-7.333 5.3 2.7-8.636-7.308-5.336 9.046-.102 2.817-8.598 2.893 8.572 9.048.023-7.26 5.4 2.775 8.613zM144.225 72.234L136.845 67l-7.332 5.3 2.698-8.637-7.306-5.336 9.047-.102 2.818-8.598 2.893 8.572 9.05.022-7.26 5.4 2.775 8.612zM175.367 72.234L167.987 67l-7.332 5.3 2.698-8.637-7.306-5.336 9.046-.102 2.817-8.598 2.894 8.572 9.047.022-7.258 5.4 2.775 8.612zM144.225 99.743l-7.38-5.235-7.332 5.3 2.698-8.636-7.306-5.336 9.047-.102 2.818-8.598 2.893 8.572 9.05.023-7.26 5.4 2.775 8.613zM175.367 99.743l-7.38-5.235-7.332 5.3 2.698-8.636-7.306-5.336 9.046-.102 2.817-8.598 2.894 8.572 9.047.023-7.258 5.4 2.775 8.613z" fill="#fff"/><path d="M85.732 62.795c4.96 1.556 7.466 3.603 9.76 5.693l2.033-2.847c-2.477-2.808-6.505-4.066-10.573-5.285l-1.22 2.44zM89.798 57.712c4.96 1.556 7.466 3.603 9.76 5.693l2.033-2.847c-2.475-2.81-6.504-4.067-10.572-5.286l-1.22 2.44zM95.288 51.816c4.96 1.556 7.466 3.603 9.76 5.693l2.033-2.848c-2.476-2.81-6.504-4.068-10.572-5.286l-1.22 2.44z" fill="#003a73" fill-rule="evenodd"/><path d="M25.955 114.642l.203 11.386 6.1 2.644.407 54.897-6.71 2.642v8.54l24.196 6.1-.203-10.37-4.676-4.88-.203-29.075 16.266 46.764 12.403 3.864.61-78.482 4.066-3.254v-10.776H55.437v10.776l5.286 3.05.204 35.988L44.66 114.44l-18.705.202zM83.09 200.648l.202 8.743 23.586 8.744v-10.167l-5.083-5.49v-39.24l7.522.203 3.66 4.676 6.1-.203.203-21.552-6.913-.203-2.846 4.677-7.522.203v-23.382l9.353.407 3.457 7.93 9.15-.204.203-20.74H82.48l.202 10.574 5.287 3.456.61 68.927-5.49 2.643zM128.226 114.846v10.98l4.27 2.44.61 62.42-4.88 5.692.407 9.353 40.868-11.59-.406-25.82-9.962-.204-1.424 15.453-9.963 3.252.204-57.947 5.082-4.067-.203-10.166-24.604.204z" fill="#da2127" fill-rule="evenodd"/></svg>